<svg xmlns="http://www.w3.org/2000/svg" opacity=".35" viewBox="0 0 1024 1024"><path fill="#f7b817" d="m 821.544 567.652 c -8.243 -9.917 -18.885 -19.261 -31.631 -27.046 c -12.726 -7.788 -27.064 -14.69 -42.603 -20.216 l -2.912 -1.047 l -1.382 -0.501 l -1.51 -0.501 l -3.026 -1.012 l -2.922 -0.9 c -3.869 -1.229 -7.951 -2.328 -12.008 -3.347 c -8.166 -1.989 -16.551 -3.559 -25.107 -4.745 c -17.1 -2.442 -34.82 -3.315 -52.677 -3.94 c -17.866 -0.541 -35.898 -0.902 -53.722 -1.835 c -17.816 -0.955 -35.417 -2.581 -52.312 -5.259 c -16.899 -2.667 -33.051 -6.445 -48.076 -10.905 c -15.05 -4.403 -28.849 -9.849 -41.328 -15.304 c -12.488 -5.476 -23.505 -11.364 -33.107 -16.788 c -7.66 -4.321 -14.307 -8.542 -20.033 -12.284 c -8.228 -4.351 -16.417 -8.938 -24.568 -13.805 c -8.8 3.155 -26.753 8.075 -37.361 5.391 c -14.606 -3.699 -25.011 -9.695 -35.959 -25.671 c 17.878 7.258 33.9 -6.765 52.475 -0.409 c -11.492 -16.774 0.812 -32.924 -6.735 -50.037 c 15.007 7.567 21.228 14.805 27.393 26.761 c 4.443 8.622 4.91 26.244 5.137 35.532 c 33.797 22.511 68.436 40.154 104.971 53.511 c 3.878 1.086 7.813 2.148 11.834 3.169 c 13.811 3.486 28.542 6.213 43.868 8.202 c -38.15 -19.924 -71.559 -44.7 -102.963 -76.359 c -7.484 0.65 -22.432 0.815 -30.121 -3.442 c -10.591 -5.853 -17.446 -12.637 -22.688 -27.281 c 11.484 10.527 25.593 -0.59 40.838 10.394 c -7.172 -17.609 8.849 -27.159 5.001 -40.24 c 10.113 8.942 13.469 15.84 15.812 26.383 c 1.687 7.604 -1.555 21.388 -3.275 28.652 c 30.492 33.914 63.465 60.584 101.8 82.437 c 16.128 1.954 32.882 3.084 50.008 3.66 c 17.544 0.65 35.48 0.667 53.556 1.199 c 18.072 0.491 36.339 1.446 54.288 4.092 c 8.967 1.285 34.715 8.047 51.338 14.386 c 5.158 2.062 15.903 6.28 23.308 10.133 c 7.41 3.821 14.564 7.772 21.119 12.358 c 13.111 9.116 24.436 19.612 32.509 31.179 c 8.121 11.51 13.308 23.545 15.712 34.6 c 2.54 11.038 2.924 20.854 2.494 28.817 c -0.372 7.974 -1.414 14.113 -2.212 18.28 c -0.375 2.083 -0.778 3.641 -1.007 4.714 c -0.241 1.066 -0.364 1.608 -0.364 1.608 c 0 0 0.154 -2.249 0.447 -6.461 c 0.23 -4.188 0.399 -10.375 -0.083 -18.134 c -0.232 -3.883 -0.764 -8.147 -1.555 -12.721 c -0.758 -4.584 -1.985 -9.447 -3.627 -14.495 c -3.332 -10.077 -8.802 -20.82 -17.033 -30.778 z m -475.021 -404.848 c 0 0 -4.194 -2.173 -8.104 -10.48 c -6.821 -14.508 -1.514 -22.471 5.957 -34.395 c 3.562 -5.676 7.334 -14.508 7.334 -14.508 c 0 0 1.788 11.327 3.028 15.598 c 3.848 13.268 8.029 20.453 0.279 33.845 c -4.44 7.672 -8.494 9.94 -8.494 9.94 z m 27.501 12.178 c 4.009 13.229 3.328 20.984 -0.104 31.349 c -3.429 10.368 -17.992 24.2 -17.992 24.2 c -14.528 -32.32 8.658 -32.507 18.096 -55.549 z m -23.768 16.849 c -9.279 -27.013 9.082 -27.496 19.374 -45.206 c 2.382 11.483 1.209 18.046 -2.47 26.504 c -3.677 8.459 -16.904 18.702 -16.904 18.702 z m 26.972 20.129 c 5.43 12.554 5.594 20.278 3.304 30.878 c -2.293 10.597 -15.278 25.866 -15.278 25.866 c -17.928 -30.346 5.066 -33.01 11.974 -56.745 z m 18.216 70.909 c 7.969 10.927 9.767 18.373 9.783 29.152 c 0.012 10.78 -9.406 28.444 -9.406 28.444 c -23.959 -25.63 -2.102 -33.105 -0.378 -57.597 z m -11.018 -34.848 c 6.747 11.789 7.737 19.407 6.595 30.141 c -1.141 10.742 -12.41 27.289 -12.41 27.289 c -21.071 -28.121 1.484 -33.203 5.815 -57.431 z m 25.703 68.185 c 9.089 9.98 11.674 17.181 12.851 27.898 c 1.176 10.716 -6.275 29.309 -6.275 29.309 c -26.565 -22.909 -5.684 -32.662 -6.577 -57.207 z m -65.865 -14.055 c 17.211 19.441 36.739 8.602 45.789 41.542 c 0 0 -20.412 -2.062 -29.489 -10.033 c -9.075 -7.972 -14.315 -16.058 -16.3 -31.509 z m 0.53 -109.907 c 0 0 -14.638 -8.81 -18.753 -18.074 c -4.119 -9.266 -5.34 -17.238 -1.684 -29.914 c 7.721 20.316 25.577 20.143 20.438 47.988 z m 66.532 185.007 c 0 0 -20.525 0.145 -30.402 -6.798 c -9.883 -6.949 -15.964 -14.416 -19.59 -29.535 c 19.229 17.451 37.423 4.556 49.992 36.333 z m -61.89 -145.507 c 0 0 -18.711 -8.63 -24.761 -19.269 c -6.05 -10.639 -8.436 -20.148 -5.319 -35.775 c 9.848 24.308 31.937 20.74 30.08 55.044 z m 23.098 76.297 c 0 0 -20.087 -4.27 -28.255 -13.202 c -8.169 -8.933 -12.517 -17.56 -12.828 -33.206 c 14.982 21.256 35.605 12.672 41.083 46.408 z m -13.599 -37.422 c 0 0 -19.517 -6.467 -26.679 -16.291 c -7.166 -9.819 -10.562 -18.926 -9.173 -34.63 c 12.528 22.893 34.006 16.721 35.852 50.921 z m 18.165 241.644 c -16.091 -10.126 -8.651 -27.223 -19.406 -35.6 c 13.432 1.369 20.176 5.013 28.23 12.212 c 5.809 5.192 11.213 18.284 14.046 25.183 c 39.382 8.662 77.052 11.556 115.589 8.945 c -5.102 -1.087 -10.131 -2.24 -15.048 -3.489 c -9.111 -2.305 -17.898 -4.839 -26.301 -7.566 c -8.4 -2.749 -16.376 -5.788 -23.977 -8.81 c -7.577 -3.088 -14.765 -6.202 -21.48 -9.414 c -6.719 -3.212 -12.981 -6.472 -18.814 -9.604 c -11.664 -6.28 -21.437 -12.408 -29.384 -17.574 c -3.964 -2.599 -7.494 -4.93 -10.483 -7.085 c -3.017 -2.107 -5.578 -3.901 -7.603 -5.426 c -4.071 -3.012 -6.244 -4.622 -6.244 -4.622 c 0 0 2.337 1.363 6.709 3.923 c 2.167 1.308 4.89 2.84 8.084 4.63 c 3.182 1.818 6.879 3.83 11.023 6.074 c 8.312 4.436 18.501 9.628 30.395 15.07 c 5.964 2.677 12.34 5.445 19.153 8.129 c 6.786 2.74 13.988 5.438 21.566 8.041 c 7.601 2.541 15.547 5.078 23.883 7.303 c 8.31 2.295 16.957 4.448 25.915 6.331 c 8.958 1.896 18.231 3.492 27.748 4.84 c 9.514 1.368 19.27 2.557 29.237 3.445 c 0.584 0.051 1.174 0.091 1.756 0.141 c 0.664 -0.116 1.321 -0.213 1.986 -0.333 c -0.558 0.125 -1.112 0.236 -1.671 0.362 c 19.289 1.651 39.392 2.414 59.796 3.054 c 21.346 0.671 43.236 1.928 64.962 5.174 c 21.697 3.313 43.355 8.262 63.813 16.36 c 10.205 4.078 20.049 9.051 29.185 15.054 c 9.148 5.969 17.539 13.084 24.566 21.267 c 7.118 8.109 12.472 17.525 16.227 27.173 c 1.818 4.859 3.232 9.786 4.281 14.705 c 0.944 4.939 1.668 9.842 1.928 14.691 c 0.2 2.427 0.17 4.831 0.247 7.216 c -0.086 2.395 -0.083 4.707 -0.256 7.113 c -0.389 5.062 -1.461 9.699 -2.946 14.158 c -2.993 8.867 -7.62 16.644 -13.046 23.208 c -10.876 13.211 -25.232 21.077 -38.491 24.122 c -6.647 1.584 -13.045 2.007 -18.874 1.789 c -5.839 -0.237 -11.122 -1.096 -15.781 -2.217 c -9.341 -2.234 -16.16 -5.439 -20.725 -7.628 c -2.275 -1.128 -3.983 -2.056 -5.124 -2.706 c -1.14 -0.64 -1.727 -0.973 -1.727 -0.973 c 0 0 0.616 0.271 1.816 0.799 c 1.189 0.541 2.986 1.274 5.336 2.198 c 4.699 1.802 11.722 4.288 20.93 5.773 c 9.143 1.523 20.675 1.766 32.848 -1.887 c 6.066 -1.815 12.216 -4.682 18.007 -8.693 c 5.782 -4.015 11.194 -9.166 15.803 -15.304 c 4.592 -6.127 8.371 -13.299 10.585 -21.107 c 1.099 -3.874 1.807 -7.998 1.916 -11.941 c 0.056 -2.095 -0.09 -4.326 -0.12 -6.501 c -0.167 -2.183 -0.222 -4.389 -0.497 -6.581 c -0.407 -4.407 -1.252 -8.788 -2.264 -13.164 c -1.116 -4.348 -2.548 -8.649 -4.308 -12.846 c -3.623 -8.359 -8.685 -16.236 -15.046 -23.237 c -12.682 -14.123 -30.399 -24.356 -49.518 -31.613 c -19.15 -7.413 -39.888 -12.015 -60.856 -15.035 c -20.997 -3.049 -42.255 -4.642 -63.372 -5.415 c -5.255 -0.216 -10.622 -0.382 -15.933 -0.666 c -5.278 -0.257 -10.53 -0.606 -15.761 -0.982 c -10.456 -0.745 -20.806 -1.639 -30.971 -2.808 c -10.163 -1.175 -20.146 -2.552 -29.86 -4.3 c -2.091 -0.384 -4.164 -0.781 -6.227 -1.188 c -41.12 5.417 -81.382 4.531 -123.879 -2.625 c -5.701 4.887 -17.757 13.735 -26.483 14.76 c -12.02 1.412 -21.542 -0.096 -34.337 -8.939 c 15.471 1.86 20.462 -15.398 39.248 -15.365 z m -192.566 -151.211 c 0.87 8.819 -1.103 13.024 -1.103 13.024 c 0 0 -4.674 0.678 -12.696 -3.793 c -14.001 -7.81 -14.328 -17.368 -15.211 -31.415 c -0.418 -6.688 -2.502 -16.06 -2.502 -16.06 c 0 0 8.058 8.152 11.557 10.9 c 10.863 8.538 18.449 11.944 19.955 27.344 z m 28.35 6.881 c 10.966 8.412 14.938 15.113 18.192 25.534 c 3.252 10.427 -0.517 30.149 -0.517 30.149 c -30.635 -17.812 -11.922 -31.44 -17.675 -55.683 z m -20.106 -20.473 c 8.625 7.945 11.499 13.961 13.443 22.973 c 1.943 9.018 -2.835 25.051 -2.835 25.051 c -23.277 -16.558 -8.641 -27.63 -10.608 -48.025 z m 44.268 48.652 c 11.73 7.038 16.359 13.208 20.678 23.159 c 4.318 9.949 2.667 29.929 2.667 29.929 c -32.252 -14.212 -15.137 -29.77 -23.345 -53.088 z m 56.136 46.985 c 12.845 4.239 18.641 9.243 24.937 17.994 c 6.299 8.746 8.938 28.591 8.938 28.591 c -34.376 -6.857 -21.034 -25.655 -33.876 -46.586 z m -29.267 -21.888 c 12.354 5.641 17.592 11.26 22.925 20.652 c 5.333 9.393 5.827 29.415 5.827 29.415 c -33.495 -10.582 -18.173 -27.838 -28.752 -50.067 z m 87.336 55.602 c 7.209 8.017 11.992 27.47 11.992 27.47 c -34.93 -3.125 -23.677 -23.212 -38.701 -42.651 c 13.2 2.812 19.501 7.16 26.709 15.18 z m -26.989 18.852 c 0 0 -17.794 10.231 -29.813 9.045 c -12.024 -1.186 -20.993 -4.699 -31.614 -16.095 c 25.32 5.751 34.869 -14.42 61.427 7.051 z m -125.067 -96.659 c 0 0 -17.035 1.373 -25.778 -3.755 c -8.751 -5.126 -14.386 -10.898 -18.803 -23.33 c 18.1 12.026 32.535 1.441 44.581 27.085 z m 161.915 111.526 c 0 0 -16.597 12.082 -28.67 12.202 c -12.08 0.115 -21.372 -2.407 -33.133 -12.575 c 25.798 2.958 33.077 -18.128 61.804 0.373 z m -135.119 -82.145 c 0 0 -20.235 3.903 -31.356 -1.214 c -11.12 -5.118 -18.594 -11.459 -25.176 -25.971 c 22.172 14.008 38.043 -1.767 56.532 27.184 z m 63.247 48.533 c 0 0 -18.806 8.239 -30.652 5.741 c -11.845 -2.494 -20.404 -6.971 -29.783 -19.5 c 24.569 8.538 36.314 -10.456 60.435 13.76 z m -32.87 -22.484 c 0 0 -19.626 6.129 -31.172 2.323 c -11.546 -3.802 -19.609 -9.221 -27.638 -22.789 c 23.524 11.288 37.389 -6.245 58.811 20.467 z m -81.451 -303.793 c -12.81 -15.311 -8.934 -26.574 -3.712 -43.301 c 2.486 -7.964 4.227 -19.794 4.227 -19.794 c 0 0 5.745 13.073 8.592 17.824 c 8.835 14.76 16.143 22.087 11.055 40.67 c -2.916 10.644 -7.087 14.654 -7.087 14.654 c 0 0 -5.737 -1.284 -13.075 -10.052 z m 50.056 16.012 c 9.017 14.656 10.645 24.211 9.799 37.782 c -0.852 13.569 -14 34.834 -14 34.834 c -27.825 -35.421 1.367 -41.28 4.202 -72.616 z m -14.275 -32.753 c 6.495 13.072 7.167 21.34 5.419 32.693 c -1.75 11.346 -14.433 27.872 -14.433 27.872 c -19.839 -31.031 3.718 -34.969 9.014 -60.565 z m 29.841 76.266 c 10.515 13.4 13.152 22.646 13.745 36.132 c 0.6 13.491 -10.193 35.988 -10.193 35.988 c -31.425 -31.951 -3.049 -40.889 -3.552 -72.12 z m 65.397 111.621 c 3.435 12.975 -2.319 37.228 -2.319 37.228 c -37.408 -24.291 -11.652 -39.006 -18.685 -69.236 c 13.056 10.641 17.572 19.034 21.003 32.008 z m -34.121 0.524 c -34.609 -28.251 -7.405 -40.118 -11.189 -71.001 c 11.859 12.057 15.455 20.915 17.483 34.206 c 2.024 13.298 -6.294 36.794 -6.294 36.794 z m 41.355 2.967 c 14.101 9.138 19.496 16.993 24.309 29.527 c 4.806 12.525 1.726 37.279 1.726 37.279 c -39.797 -20.112 -15.83 -37.496 -26.035 -66.805 z m -54.158 36.711 c -13.452 -6.729 -22.326 -14.803 -29.61 -32.782 c 9.43 7.219 16.662 3.195 26.964 5.104 c 19.781 3.673 30.32 12.51 41.34 30.416 c 0 0 -25.241 3.983 -38.695 -2.738 z m -63.775 -165.293 c 0 0 -20.414 -5.974 -28.309 -15.825 c -7.893 -9.856 -11.889 -19.07 -11.496 -35.492 c 14.438 23.142 36.36 15.598 39.805 51.317 z m 66.998 173.787 c 10.146 6.138 16.896 1.352 27.336 2.136 c 20.062 1.502 31.486 9.161 44.376 25.778 c 0 0 -24.677 6.674 -38.77 1.443 c -14.098 -5.234 -23.785 -12.303 -32.942 -29.357 z m -78.553 -170.499 c 17.639 10.119 24.851 22.132 29.655 42.802 c 0 0 -25.262 -4.461 -35.919 -15.359 c -10.66 -10.897 -16.538 -21.594 -17.735 -41.396 c 6.572 10.077 14.796 8.674 23.999 13.954 z m 17.463 84.486 c 8.591 8.241 16.235 5.03 26.29 8.073 c 19.288 5.835 28.832 15.79 37.88 34.807 c 0 0 -25.541 1.218 -38.211 -6.952 c -12.666 -8.169 -20.63 -17.186 -25.96 -35.927 z m -23.362 -47.842 c 3.303 19.344 10.277 29.24 22.014 38.799 c 11.738 9.561 37.29 11.161 37.29 11.161 c -6.977 -19.934 -15.407 -30.946 -33.988 -38.933 c -9.691 -4.168 -17.666 -1.839 -25.315 -11.027"/></svg>