<svg xmlns="http://www.w3.org/2000/svg" width="128" height="128" viewBox="0 0 64 64"><circle cx="32" cy="32" r="32" fill="#009970"/><path fill="#f59d40" stroke="#311363" stroke-width="4" d="M 32 52 v -7 a 7 7 0 0 0 -7 -7 h -7 v 7 a 7 7 0 0 0 7 7 h 14 a 7 7 0 0 0 7 -7 v -7 h -7 a 7 7 0 0 0 -7 7 v 7 z m 0 -7 v -11 a 7 7 0 0 0 -7 -7 h -7 v 11 h 7 a 7 7 0 0 1 7 7 a 7 7 0 0 1 7 -7 h 7 v -11 h -7 a 7 7 0 0 0 -7 7 z m 0 -11 v -11 a 7 7 0 0 0 -7 -7 h -7 v 11 h 7 a 7 7 0 0 1 7 7 a 7 7 0 0 1 7 -7 h 7 v -11 h -7 a 7 7 0 0 0 -7 7 z"/></svg>